<svg class="svg-icon" style="width: 1em; height: 1em;vertical-align: middle;fill: currentColor;overflow: hidden;" viewBox="0 0 1024 1024" version="1.1" xmlns="http://www.w3.org/2000/svg"><path d="M510.976 637.952c-20.48 0-38.912-17.408-38.912-37.888v-19.456V563.2v-37.888H365.568c-10.24 0-19.456-4.096-26.624-11.264-7.168-7.168-11.264-19.456-11.264-29.696 1.024-21.504 17.408-38.912 37.888-38.912H471.04v-1.024-32.768H363.52c-20.48 0-37.888-17.408-37.888-37.888 0-10.24 4.096-20.48 11.264-29.696 7.168-7.168 16.384-11.264 26.624-11.264h68.608l-1.024-2.048c-14.336-22.528-27.648-47.104-40.96-69.632l-1.024-4.096c-15.36-25.6-30.72-51.2-46.08-75.776-4.096-6.144-15.36-24.576-1.024-40.96 7.168-10.24 20.48-15.36 33.792-15.36 5.12 0 10.24 1.024 14.336 2.048 16.384 6.144 26.624 21.504 31.744 31.744 19.456 33.792 37.888 67.584 57.344 100.352l30.72 54.272 22.528-40.96 19.456-32.768c14.336-25.6 29.696-51.2 43.008-75.776 5.12-10.24 14.336-20.48 22.528-27.648 6.144-5.12 15.36-9.216 22.528-9.216 16.384 0 32.768 10.24 38.912 25.6 4.096 9.216 1.024 20.48-2.048 26.624-19.456 32.768-37.888 65.536-57.344 97.28l-14.336 24.576-19.456 33.792H655.36c20.48 0 36.864 17.408 36.864 38.912 0 22.528-16.384 38.912-36.864 38.912H548.864v-1.024 32.768H655.36c19.456 0 33.792 12.288 37.888 30.72 5.12 17.408-6.144 38.912-22.528 47.104-4.096 2.048-9.216 2.048-12.288 2.048H550.912V547.84c-1.024 19.456 0 33.792 0 49.152 1.024 7.168-2.048 17.408-10.24 24.576-7.168 10.24-19.456 16.384-29.696 16.384zM875.52 509.952c0-16.384-12.288-27.648-26.624-27.648-5.12 0-10.24 1.024-14.336 4.096l-161.792 94.208c-4.096 3.072-7.168 8.192-7.168 14.336 0 6.144 3.072 11.264 8.192 14.336v1.024l3.072 2.048 62.464 29.696c0 1.024-1.024 1.024-1.024 2.048-9.216 16.384-4.096 36.864 11.264 47.104 16.384 11.264 38.912 6.144 49.152-10.24 1.024-1.024 1.024-2.048 2.048-3.072 1.024-2.048 2.048-3.072 2.048-5.12l40.96 19.456 22.528 10.24c2.048 1.024 5.12 2.048 8.192 2.048 9.216 0 17.408-7.168 17.408-17.408l-16.384-177.152zM674.816 824.32c1.024 0 1.024-1.024 2.048-1.024 1.024-1.024 2.048-1.024 3.072-2.048 3.072-2.048 6.144-5.12 8.192-8.192 11.264-16.384 6.144-38.912-10.24-50.176-12.288-8.192-28.672-8.192-40.96 0-33.792 23.552-75.776 44.032-126.976 54.272-138.24-26.624-204.8-124.928-230.4-175.104l62.464-29.696 3.072-2.048v-1.024c5.12-3.072 8.192-8.192 8.192-14.336 0-6.144-3.072-11.264-7.168-14.336L184.32 486.4c-4.096-3.072-9.216-4.096-14.336-4.096-14.336 0-26.624 11.264-26.624 27.648l-18.432 177.152c0 10.24 8.192 17.408 17.408 17.408 3.072 0 6.144-1.024 8.192-2.048l22.528-10.24 40.96-19.456c20.48 39.936 60.416 102.4 130.048 151.552-17.408 0-31.744 13.312-34.816 30.72-3.072 20.48 11.264 38.912 31.744 40.96 20.48 2.048 40.96 3.072 61.44 3.072 35.84 0 70.656-3.072 106.496-9.216 35.84 6.144 70.656 9.216 106.496 9.216 20.48 0 40.96-1.024 61.44-3.072 20.48-2.048 34.816-20.48 31.744-40.96-2.048-18.432-16.384-30.72-33.792-30.72z"  /><path d="M702.87164 761.868957a35.84 35.84 0 1 0 39.624373-59.732165 35.84 35.84 0 1 0-39.624373 59.732165Z"  /></svg>